<svg xmlns="http://www.w3.org/2000/svg" width="422" height="547" viewBox="0 0 422 547" fill="none"><path fill-rule="evenodd" clip-rule="evenodd" d="M115.547 0.0639089C92.1544 0.894669 75.7261 2.40387 61.227 5.05413C37.6149 9.36987 21.9966 16.6278 17.6172 25.3199C12.827 34.8264 8.01123 60.4905 4.59952 94.6957C-0.132154 142.135 -1.26075 195.964 1.43499 245.635C6.2165 333.743 22.2272 403.804 47.9474 449.169C51.2195 454.94 58.4898 465.848 62.4414 470.916C80.1684 493.649 103.185 512.487 129.501 525.802C164.008 543.262 199.475 550.043 233.822 545.748C259.948 542.482 285.879 532.425 309.406 516.434C364.831 478.764 403.457 412.303 417.213 330.94C420.612 310.833 422 293.816 422 272.241C422 247.95 420.137 228.381 415.714 206.213C406.533 160.204 388.274 119.783 361.561 86.3345C355.753 79.0636 352.498 75.4096 345.306 68.0894C333.076 55.6421 321.104 45.8013 306.581 36.2605C292.875 27.2558 276.315 18.6981 266.208 15.3967C244.34 8.25411 203.716 2.64299 158.572 0.529839C151.148 0.182304 121.312 -0.140954 115.547 0.0639089Z" fill="white"></path></svg>